<svg width="14" height="12" viewBox="0 0 14 12" fill="none" xmlns="http://www.w3.org/2000/svg">
  <path d="M1.16683 6.83342H11.0502L8.02516 10.4668C7.95512 10.551 7.90237 10.6482 7.86991 10.7529C7.83745 10.8576 7.82592 10.9676 7.83598 11.0767C7.85629 11.297 7.96331 11.5003 8.13349 11.6418C8.30368 11.7832 8.52308 11.8513 8.74343 11.8309C8.96379 11.8106 9.16705 11.7036 9.3085 11.5334L13.4752 6.53342C13.5032 6.49365 13.5283 6.45187 13.5502 6.40842C13.5502 6.36675 13.5918 6.34175 13.6085 6.30008C13.6463 6.20453 13.666 6.10282 13.6668 6.00008C13.666 5.89734 13.6463 5.79563 13.6085 5.70008C13.6085 5.65842 13.5668 5.63342 13.5502 5.59175C13.5283 5.5483 13.5032 5.50652 13.4752 5.46675L9.3085 0.46675C9.23014 0.372681 9.13203 0.297031 9.02112 0.24518C8.91022 0.193329 8.78925 0.166551 8.66683 0.16675C8.47212 0.166369 8.28342 0.234182 8.13349 0.358416C8.04911 0.428374 7.97936 0.514291 7.92824 0.611247C7.87711 0.708203 7.84561 0.814293 7.83555 0.92344C7.82548 1.03259 7.83705 1.14265 7.86959 1.24732C7.90213 1.35199 7.95499 1.44921 8.02516 1.53342L11.0502 5.16675H1.16683C0.945816 5.16675 0.733854 5.25455 0.577574 5.41083C0.421294 5.56711 0.333496 5.77907 0.333496 6.00008C0.333496 6.2211 0.421294 6.43306 0.577574 6.58934C0.733854 6.74562 0.945816 6.83342 1.16683 6.83342Z" fill="#181A18" />
</svg>